<svg width="440" height="276" viewBox="0 0 440 276" fill="none" xmlns="http://www.w3.org/2000/svg">
<rect width="440" height="276" fill="black"/>
<path d="M438.649 114.15H368.824L220.089 224.121L220 224.187L219.911 224.121L71.176 114.15H1.35073L220 275.813L438.649 114.15ZM220 223.813L368.319 114.15H284.969L220.089 162.121L220 162.187L219.911 162.121L155.031 114.15H71.6805L220 223.813ZM285.375 113.85H368.725L438.649 62.15H355.299L285.375 113.85ZM220 161.813L284.465 114.15H155.535L220 161.813ZM155.13 113.85H284.87L354.794 62.15H85.2055L155.13 113.85ZM71.2748 113.85H154.625L84.7009 62.15H1.35073L71.2748 113.85ZM1.35073 0.149994L84.7998 61.85H355.2L438.649 0.149994H1.35073Z" stroke="#FFD700" stroke-width="0.3"/>
<line x1="219.85" y1="224" x2="219.85" stroke="#FFD700" stroke-width="0.3"/>
</svg>
